<?xml version="1.0" standalone="no"?>
<!DOCTYPE svg PUBLIC "-//W3C//DTD SVG 20010904//EN"
 "http://www.w3.org/TR/2001/REC-SVG-20010904/DTD/svg10.dtd">
<svg version="1.0" xmlns="http://www.w3.org/2000/svg"
 width="700.000000pt" height="700.000000pt" viewBox="0 0 700.000000 700.000000"
 preserveAspectRatio="xMidYMid meet">
<g transform="translate(0.000000,700.000000) scale(0.100000,-0.100000)"
fill="#000000" stroke="none">
<path d="M3517 6864 c-1 -1 -58 -5 -127 -8 -156 -9 -176 -11 -275 -26 -443
-67 -846 -215 -1215 -447 -118 -74 -278 -189 -345 -248 -16 -14 -56 -49 -87
-77 -404 -352 -732 -857 -903 -1387 -33 -103 -80 -286 -91 -351 -3 -14 -9 -50
-14 -80 -46 -264 -57 -638 -25 -880 1 -14 6 -50 10 -80 4 -30 11 -77 16 -105
5 -27 12 -66 15 -85 20 -127 108 -414 181 -590 152 -368 403 -742 689 -1025
185 -182 436 -375 646 -495 87 -50 288 -150 358 -177 36 -14 79 -31 95 -39 88
-38 349 -114 495 -143 98 -20 104 -21 145 -26 22 -3 67 -10 100 -15 170 -26
537 -29 740 -5 49 6 129 17 145 20 8 1 32 5 52 9 252 41 566 142 818 263 430
207 780 483 1092 862 l61 73 -48 42 c-27 22 -195 162 -374 310 -180 148 -346
285 -369 305 -24 20 -47 37 -51 39 -4 1 -37 -35 -73 -80 -309 -388 -780 -659
-1272 -734 -21 -3 -48 -8 -60 -11 -37 -9 -409 -11 -466 -2 -30 4 -75 11 -100
14 -205 30 -457 115 -643 216 -38 22 -71 39 -73 39 -1 0 -43 27 -93 60 -315
209 -576 517 -732 865 -62 139 -127 347 -144 465 -2 14 -9 61 -15 105 -14 98
-19 336 -9 430 11 106 20 166 29 210 5 22 11 55 15 73 14 84 105 329 165 447
61 120 155 274 197 320 10 11 31 38 48 60 54 73 243 254 346 330 371 276 791
415 1239 409 112 -1 225 -9 277 -18 10 -2 38 -7 63 -11 25 -4 88 -18 141 -31
416 -103 806 -350 1078 -681 23 -29 46 -53 50 -53 4 0 18 9 31 20 23 18 291
224 540 413 218 167 310 240 310 247 0 12 -127 167 -205 250 -119 127 -221
222 -328 308 -40 31 -77 62 -84 68 -6 6 -69 50 -140 97 -159 106 -324 198
-468 261 -60 26 -123 54 -140 61 -125 55 -468 149 -630 174 -176 26 -179 27
-315 36 -90 7 -269 12 -273 9z"/>
<path d="M3416 5489 c-233 -26 -422 -80 -623 -178 -297 -145 -569 -393 -743
-676 -85 -139 -181 -366 -214 -507 -3 -14 -9 -34 -12 -45 -3 -10 25 34 63 97
110 184 197 296 333 430 313 308 699 500 1140 566 180 27 489 22 651 -11 13
-3 40 -8 59 -11 58 -10 199 -53 300 -91 187 -70 406 -196 555 -316 62 -50 270
-258 312 -312 l31 -40 184 140 c101 77 301 230 445 340 l261 200 -30 41 c-16
22 -48 63 -72 90 l-43 48 -49 -40 c-27 -22 -61 -49 -75 -60 -15 -10 -177 -134
-360 -275 -184 -140 -339 -258 -345 -262 -7 -4 -50 44 -105 116 -316 412 -707
657 -1174 737 -139 24 -364 33 -489 19z"/>
<path d="M810 1766 c0 -12 109 -206 136 -243 13 -17 24 -34 24 -37 0 -11 123
-181 204 -281 74 -92 287 -314 381 -396 121 -106 356 -272 500 -354 179 -102
423 -210 610 -269 162 -51 406 -106 535 -121 25 -3 61 -7 80 -10 261 -32 650
-19 900 30 14 3 41 8 60 11 107 18 411 105 505 144 11 5 65 27 120 50 208 86
491 249 660 379 214 165 420 364 563 543 49 62 62 88 44 88 -4 0 -28 18 -52
40 -25 22 -49 40 -54 40 -5 0 -57 -46 -115 -103 -298 -289 -708 -554 -1081
-697 -47 -18 -94 -37 -105 -41 -21 -9 -169 -58 -195 -65 -8 -2 -49 -12 -90
-24 -64 -17 -110 -27 -245 -56 -11 -2 -38 -6 -60 -9 -22 -3 -51 -7 -65 -10
-61 -12 -161 -22 -295 -31 -75 -5 -372 -4 -435 1 -127 10 -220 22 -330 42 -47
8 -98 17 -115 19 -60 11 -263 64 -366 97 -299 97 -616 253 -878 435 -269 187
-514 418 -741 698 -9 11 -34 46 -58 78 -23 33 -42 56 -42 52z"/>
</g>
</svg>
