<svg width="88" height="16" viewBox="0 0 88 16" fill="none" xmlns="http://www.w3.org/2000/svg">
<path d="M17.6953 11.5625C18.0566 10.6934 18.2324 9.60938 18.2422 8.30078C18.252 6.99219 18.0664 5.88867 17.6953 5C16.6211 2.26562 13.9062 0.927734 9.56055 0.976562C5.21484 0.927734 2.5 2.26562 1.41602 5C1.04492 5.87891 0.859375 6.96289 0.859375 8.26172C0.859375 9.56055 1.04492 10.6445 1.41602 11.5234C2.04102 13.0566 3.18359 14.1211 4.69727 14.6582C5.45898 14.9219 6.2207 15.1074 6.99219 15.2148C7.76367 15.3223 8.61328 15.3809 9.56055 15.3809C10.3711 15.3809 11.25 15.332 12.1973 15.2246C13.1445 15.127 13.8477 14.9609 14.3164 14.7363L15.498 15.918L17.7832 13.623L17.002 12.8418C17.2754 12.4609 17.5098 12.0312 17.6953 11.5625ZM9.56055 12.1582C7.28516 12.1582 5.87891 11.4551 5.3418 10.0586C5.15625 9.64844 5.05859 9.05273 5.05859 8.26172C5.05859 7.4707 5.15625 6.875 5.3418 6.46484C5.87891 5.05859 7.28516 4.35547 9.56055 4.35547C10.8105 4.35547 11.7578 4.54102 12.4023 4.91211C13.0566 5.2832 13.5156 5.80078 13.7793 6.46484C13.9258 6.82617 14.0137 7.34375 14.0332 8.01758C14.0625 8.69141 14.0137 9.25781 13.8965 9.7168L12.5977 8.41797L10.3027 10.7227L11.543 11.9629C10.9863 12.0898 10.3223 12.1582 9.56055 12.1582ZM30.7617 15.1172C31.7676 14.873 32.6172 14.4824 33.3203 13.9355C34.1309 13.3203 34.7363 12.5098 35.1367 11.5234C35.5273 10.5957 35.7227 9.50195 35.7227 8.24219V1.50391H31.6602V8.24219C31.6602 8.74023 31.6113 9.16992 31.5137 9.55078C31.3281 10.3027 31.1133 10.752 30.6445 11.1035C30.1855 11.4453 29.9023 11.582 29.3262 11.6699C29.043 11.7188 28.8184 11.7383 28.6621 11.748C28.5156 11.7578 28.3008 11.7578 28.0371 11.7578C27.7734 11.7578 27.5586 11.7578 27.4023 11.748C27.2559 11.7383 27.0312 11.7188 26.7383 11.6699C26.4453 11.6211 26.2109 11.5625 26.0254 11.4844C25.6738 11.3184 25.127 10.957 24.8535 10.4785C24.5898 10 24.375 9.22852 24.375 8.24219V1.50391H20.3223V8.24219C20.3223 9.50195 20.5176 10.5957 20.918 11.543C21.3184 12.5098 21.9336 13.3105 22.7637 13.9355C24.0234 14.9121 25.7812 15.4004 28.0371 15.4004C29.0625 15.4004 29.9707 15.3027 30.7617 15.1172ZM42.6953 1.50391L36.0742 15H40.5957L41.3965 13.3789H48.5352L49.3359 15H53.8379L47.2168 1.50391H42.6953ZM42.959 10.1367L44.9609 6.10352L46.9141 10.1367H42.959ZM65.9668 15H70.4688L68.3203 10.5957C68.5742 10.4297 68.8086 10.2246 69.0234 10C69.4922 9.54102 69.8535 9.01367 70.1074 8.41797C70.6152 7.19727 70.6152 5.76172 70.1074 4.54102C69.5996 3.33984 68.6426 2.39258 67.4414 1.88477C66.8262 1.63086 66.1816 1.50391 65.5078 1.50391H55.3809V15H59.4434V11.4648H64.2285L65.9668 15ZM59.4434 4.73633H64.6875C65.166 4.73633 65.5664 4.91211 65.9082 5.25391C66.25 5.5957 66.4258 6.00586 66.4258 6.48438C66.4258 6.96289 66.2598 7.37305 65.918 7.71484C65.5762 8.05664 65.166 8.22266 64.6875 8.22266H59.4434V4.73633ZM87.8516 1.50391H81.9238L76.8066 6.2793V1.50391H74.7656H72.7441L72.7637 15H74.7852H76.8066V11.8359L78.5254 10.2246L82.5879 15H87.9102L81.4844 7.46094L87.8516 1.50391Z" fill="black"/>
</svg>
